<svg width="1497" height="370" viewBox="0 0 1497 370" fill="none" xmlns="http://www.w3.org/2000/svg">
<path d="M867.404 93.1781L928.915 73.5616H867.404L773.575 37.8317L677.66 6.30528L537.958 0L518.149 84.0704L500.426 93.1781V135.213L474.362 201.068L360.378 329.684L252.122 339.797L0.00012207 358H376.011L474.362 254.197L518.149 113.296L573 16.6925L867.404 93.1781Z" fill="white"/>
<path d="M477.5 367L555.8 145H592.7L671.3 367H640.1L621.5 313.9H527.3L508.7 367H477.5ZM536.3 287.5H612.5L574.4 178.6L536.3 287.5ZM790.498 370C780.498 370 772.098 368.4 765.298 365.2C758.498 362 752.998 358.2 748.798 353.8C744.798 349.4 741.598 345.4 739.198 341.8H737.398V367H708.898V139H737.398V233.2H739.198C741.598 229.4 744.798 225.3 748.798 220.9C752.998 216.5 758.498 212.8 765.298 209.8C772.098 206.6 780.498 205 790.498 205C802.498 205 812.998 207.4 821.998 212.2C830.998 216.8 838.498 223.1 844.498 231.1C850.498 238.9 854.998 247.7 857.998 257.5C860.998 267.3 862.498 277.3 862.498 287.5C862.498 297.7 860.998 307.7 857.998 317.5C854.998 327.3 850.498 336.2 844.498 344.2C838.498 352 830.998 358.3 821.998 363.1C812.998 367.7 802.498 370 790.498 370ZM785.698 345.7C796.498 345.7 805.398 342.9 812.398 337.3C819.598 331.5 824.898 324.2 828.298 315.4C831.898 306.4 833.698 297.1 833.698 287.5C833.698 277.7 831.898 268.4 828.298 259.6C824.898 250.8 819.598 243.6 812.398 238C805.398 232.2 796.498 229.3 785.698 229.3C775.098 229.3 766.198 232.2 758.998 238C751.998 243.6 746.698 250.8 743.098 259.6C739.698 268.4 737.998 277.7 737.998 287.5C737.998 297.1 739.698 306.4 743.098 315.4C746.698 324.2 751.998 331.5 758.998 337.3C766.198 342.9 775.098 345.7 785.698 345.7ZM920.202 177.7C914.802 177.7 910.302 175.9 906.702 172.3C903.302 168.7 901.602 164.4 901.602 159.4C901.602 154.2 903.302 149.8 906.702 146.2C910.302 142.6 914.802 140.8 920.202 140.8C925.402 140.8 929.802 142.6 933.402 146.2C937.002 149.8 938.802 154.2 938.802 159.4C938.802 164.4 937.002 168.7 933.402 172.3C929.802 175.9 925.402 177.7 920.202 177.7ZM906.102 367V208H934.602V367H906.102ZM1038.9 370C1026.7 370 1016.6 368.3 1008.6 364.9C1000.8 361.5 994.603 357.3 990.003 352.3C985.403 347.1 982.003 342 979.803 337C977.603 331.8 976.203 327.5 975.603 324.1C975.003 320.7 974.703 319 974.703 319H1003.5C1003.5 319 1003.8 320.4 1004.4 323.2C1005.2 325.8 1006.7 328.9 1008.9 332.5C1011.3 335.9 1014.9 339 1019.7 341.8C1024.7 344.4 1031.3 345.7 1039.5 345.7C1048.9 345.7 1056.2 343.5 1061.4 339.1C1066.6 334.5 1069.2 328.9 1069.2 322.3C1069.2 316.5 1067.1 311.9 1062.9 308.5C1058.9 305.1 1053.1 302.5 1045.5 300.7L1023.9 295.6C1015.9 293.6 1008.4 290.9 1001.4 287.5C994.403 284.1 988.703 279.5 984.303 273.7C980.103 267.7 978.003 260.3 978.003 251.5C978.003 237.9 983.103 226.8 993.303 218.2C1003.5 209.4 1016.8 205 1033.2 205C1044.2 205 1053.3 206.6 1060.5 209.8C1067.7 212.8 1073.4 216.6 1077.6 221.2C1082 225.8 1085.2 230.4 1087.2 235C1089.4 239.6 1090.8 243.5 1091.4 246.7C1092 249.7 1092.3 251.2 1092.3 251.2H1064.7C1064.7 251.2 1064.4 250.1 1063.8 247.9C1063.2 245.5 1061.8 242.9 1059.6 240.1C1057.6 237.1 1054.5 234.5 1050.3 232.3C1046.1 229.9 1040.5 228.7 1033.5 228.7C1023.9 228.7 1016.9 230.9 1012.5 235.3C1008.1 239.7 1005.9 244.5 1005.9 249.7C1005.9 254.7 1007.9 258.8 1011.9 262C1016.1 265 1021.5 267.3 1028.1 268.9L1050 274C1063.6 277.2 1074.8 282.5 1083.6 289.9C1092.6 297.1 1097.1 307.5 1097.1 321.1C1097.1 329.9 1094.8 338.1 1090.2 345.7C1085.6 353.1 1079 359 1070.4 363.4C1061.8 367.8 1051.3 370 1038.9 370ZM1136.05 367V139H1164.55V271.6L1227.85 208H1265.05L1191.85 280.3L1266.55 367H1230.25L1164.55 290.5V367H1136.05ZM1361.28 370C1344.28 370 1329.98 366.1 1318.38 358.3C1306.78 350.3 1297.98 340 1291.98 327.4C1285.98 314.8 1282.98 301.5 1282.98 287.5C1282.98 273.3 1285.98 260 1291.98 247.6C1297.98 235 1306.78 224.8 1318.38 217C1329.98 209 1344.28 205 1361.28 205C1378.28 205 1392.58 209 1404.18 217C1415.78 224.8 1424.58 235 1430.58 247.6C1436.58 260 1439.58 273.3 1439.58 287.5C1439.58 301.5 1436.58 314.8 1430.58 327.4C1424.58 340 1415.78 350.3 1404.18 358.3C1392.58 366.1 1378.28 370 1361.28 370ZM1361.28 345.1C1372.08 345.1 1381.08 342.4 1388.28 337C1395.68 331.4 1401.18 324.2 1404.78 315.4C1408.58 306.6 1410.48 297.3 1410.48 287.5C1410.48 277.5 1408.58 268.2 1404.78 259.6C1401.18 250.8 1395.68 243.7 1388.28 238.3C1381.08 232.7 1372.08 229.9 1361.28 229.9C1350.68 229.9 1341.68 232.7 1334.28 238.3C1326.88 243.7 1321.28 250.8 1317.48 259.6C1313.88 268.2 1312.08 277.5 1312.08 287.5C1312.08 297.3 1313.88 306.6 1317.48 315.4C1321.28 324.2 1326.88 331.4 1334.28 337C1341.68 342.4 1350.68 345.1 1361.28 345.1Z" fill="white"/>
</svg>
